<svg xmlns="http://www.w3.org/2000/svg" viewBox="0 0 200 130" aria-hidden="true" focusable="false" role="img">
  <path d="M69,111h93.3V19H69Z" fill="#ca9e69"/>
  <path d="M87,105.5h69.9V61.7H87Z" fill="#fff"/>
  <path d="M50.4,111H69V19L50.4,27.2Z" fill="#a67641"/>
  <g fill="#cacaca">
    <path d="M35.1,111H50.4v-3.1C42.4,108.7,36.9,109.8,35.1,111Z"/>
    <path d="M162.3,107.9V111h14.6C175.1,109.9,170,108.8,162.3,107.9Z"/>
  </g>
  <g fill="#66728a">
    <rect x="139.5" y="73.7" width="3.2" height="18.6"/>
    <rect x="101.2" y="73.7" width="5.5" height="18.6"/>
    <rect x="113.3" y="73.7" width="6.5" height="18.6"/>
    <rect x="132.9" y="73.7" width="3.3" height="18.6"/>
    <rect x="110" y="73.7" width="1.1" height="18.6"/>
    <rect x="127.5" y="73.7" width="2.1" height="18.6"/>
    <rect x="123.1" y="73.7" width="2.2" height="18.6"/>
    <rect x="96.9" y="73.7" width="2.2" height="18.6"/>
  </g>
</svg>
