<svg xmlns="http://www.w3.org/2000/svg" viewBox="0 0 200 130" aria-hidden="true" focusable="false" role="img">
  <g fill="#cacaca">
    <path d="M6.9,101H27.8V97.3C16.7,98.3,9.1,99.6,6.9,101Z"/>
    <path d="M140.1,98.7V101h8.6C147.4,100.2,144.5,99.4,140.1,98.7Z"/>
  </g>
  <rect x="46.3" y="9" width="93.8" height="92" fill="#ca9e69"/>
  <path d="M64.8,95.5h69.9V51.7H64.8Z" fill="#fff"/>
  <g fill="#66728a">
    <rect x="117.3" y="63.7" width="3.2" height="18.6"/>
    <rect x="79" y="63.7" width="5.5" height="18.6"/>
    <rect x="91.1" y="63.7" width="6.5" height="18.6"/>
    <rect x="110.7" y="63.7" width="3.3" height="18.6"/>
    <rect x="87.8" y="63.7" width="1.1" height="18.6"/>
    <rect x="105.3" y="63.7" width="2.1" height="18.6"/>
    <rect x="100.9" y="63.7" width="2.2" height="18.6"/>
    <rect x="74.7" y="63.7" width="2.2" height="18.6"/>
  </g>
  <polygon points="27.8 17.2 27.8 101 46.3 101 46.3 9 27.8 17.2" fill="#a67641"/>
  <g fill="#d70036">
    <circle cx="166" cy="72.5" r="1.6"/>
    <circle cx="160" cy="73.4" r="1.6"/>
    <circle cx="154.3" cy="75.6" r="1.6"/>
    <circle cx="155" cy="80.4" r="1.6"/>
    <circle cx="161.2" cy="82.9" r="1.6"/>
    <circle cx="167.2" cy="84.9" r="1.6"/>
    <circle cx="173.3" cy="86.6" r="1.6"/>
    <circle cx="179.9" cy="88.5" r="1.6"/>
    <circle cx="185.9" cy="90.8" r="1.6"/>
    <circle cx="189.4" cy="96" r="1.6"/>
    <circle cx="187.7" cy="101.8" r="1.6"/>
    <circle cx="182.4" cy="105.4" r="1.6"/>
    <circle cx="176.2" cy="107.7" r="1.6"/>
    <circle cx="170.2" cy="109.7" r="1.6"/>
    <circle cx="163.7" cy="111" r="1.6"/>
    <circle cx="157.4" cy="111.9" r="1.6"/>
    <circle cx="150.9" cy="112.7" r="1.6"/>
    <circle cx="144.1" cy="113.2" r="1.6"/>
    <circle cx="137.7" cy="113.4" r="1.6"/>
    <circle cx="131.1" cy="113.5" r="1.6"/>
    <circle cx="124.3" cy="113.5" r="1.6"/>
    <path d="M172.9,39.3a5.4,5.4,0,0,0-5.4,5.4h0a5.5,5.5,0,1,0,5.5-5.5m0-5.4a10.8,10.8,0,0,0,.2,21.6h0a10.8,10.8,0,0,0-.2-21.6m15.1,23.5h.1L176.9,71.1a5.1,5.1,0,0,1-7.2.7h0a2.3,2.3,0,0,1-.7-.7L157.7,57.4h.1a19.2,19.2,0,0,1-4.9-12.7,20,20,0,1,1,40,0,19.1,19.1,0,0,1-4.8,12.7"/>
    <circle cx="112.9" cy="113" r="8"/>
  </g>
</svg>
