<svg width="200" height="200" viewBox="0 0 200 200" fill="none" xmlns="http://www.w3.org/2000/svg">
<mask id="mask0" mask-type="alpha" maskUnits="userSpaceOnUse" x="0" y="0" width="200" height="200">
<path d="M200 0H0V199.317H200V0Z" fill="white"/>
</mask>
<g mask="url(#mask0)">
<path fill-rule="evenodd" clip-rule="evenodd" d="M91.3014 141.654C100.068 141.654 117.466 131.892 117.466 123.906V98.4453H85.7534V130.937C85.7534 131.005 86.9863 141.654 91.3014 141.654Z" fill="#F9C0A5"/>
<path fill-rule="evenodd" clip-rule="evenodd" d="M130.411 75.8533C130.411 75.8533 143.151 58.925 136.164 35.1707C129.178 11.4164 99.4521 14.3516 99.4521 14.3516C99.4521 14.3516 63.2192 11.4164 65.137 51.8942C65.8219 65.8874 72.4658 73.7372 72.4658 73.7372L130.411 75.8533Z" fill="#372719"/>
<path fill-rule="evenodd" clip-rule="evenodd" d="M93.6986 32.0293C94.1096 32.0976 94.5206 32.0976 94.9315 32.0976L108.219 32.1659C125.822 32.3024 138.425 58.3092 133.699 77.8996C133.562 78.3775 131.712 78.9235 131.575 79.4013L127.808 99.6061C126.301 105.408 122.123 110.459 117.534 114.555C107.74 123.224 93.6301 123.156 83.9726 114.35C79.4521 110.186 75.3425 105.067 73.9041 99.2648L69.3151 78.2409C69.2466 77.9679 68.3562 77.4901 68.3562 76.8757C67.8082 67.9338 67.6028 29.7768 93.6986 32.0293Z" fill="#F9C0A5"/>
<path fill-rule="evenodd" clip-rule="evenodd" d="M111.986 35.7835C111.986 35.7835 99.0411 56.1248 95 58.0361C90.9589 59.9473 126.575 59.5378 121.986 41.9269C117.329 24.3159 111.986 35.7835 111.986 35.7835Z" fill="#372719"/>
<path fill-rule="evenodd" clip-rule="evenodd" d="M120.685 47.2517C120.753 48.9581 120.89 50.3916 120.959 51.6885C121.027 54.3506 122.945 56.6032 125.548 57.2858C127.945 57.9001 129.452 58.2414 130.206 64.0435C131.575 74.5554 132.74 56.2619 132.877 47.1834C132.945 44.7261 131.37 42.4735 129.041 41.5861L128.562 41.4496C124.658 40.0844 120.548 43.0878 120.685 47.2517Z" fill="#372719"/>
<path fill-rule="evenodd" clip-rule="evenodd" d="M131.027 71.2784C130.959 71.2784 131.78 67.3194 128.561 55.1692C126.849 48.7528 123.63 38.3774 114.041 32.4388C104.52 26.5002 85.9586 38.4456 78.1504 38.3774C73.9723 38.3091 70.5476 56.2613 70.5476 56.2613L69.8627 71.2784C69.8627 71.2784 67.5339 71.1419 65.4791 71.8927C67.9449 57.6948 64.0408 41.9951 64.0408 41.9951C64.0408 16.3978 96.6435 9.50365 116.575 16.8757C126.575 20.5617 131.712 29.9132 133.835 35.2374C134.726 37.4217 135.137 39.8791 134.931 42.2682C134.383 50.0497 132.945 66.2955 132.465 69.0258C131.575 68.548 132.191 71.2784 131.027 71.2784Z" fill="#372719"/>
<path fill-rule="evenodd" clip-rule="evenodd" d="M61.7804 72.3026C62.1914 66.8419 66.8489 63.9067 72.2599 65.7497C77.6024 67.5927 81.6435 73.4631 81.2325 78.9238C80.8216 84.3846 70.7531 85.4767 70.7531 85.4767C70.7531 85.4767 61.3695 77.7634 61.7804 72.3026Z" fill="#F9C0A5"/>
<path fill-rule="evenodd" clip-rule="evenodd" d="M108.904 27.7978C108.356 27.6613 107.808 27.5248 107.328 27.3883C91.9173 30.9378 82.8078 29.2313 77.4653 26.3644C75.342 25.204 73.8351 23.907 72.7393 22.6784C70.753 20.4258 70.2735 18.4463 70.2735 18.4463C58.2872 25.8866 67.0543 44.1801 93.1502 45.6818C110.274 46.6374 115 37.3541 116.232 30.8695C113.972 29.5726 111.575 28.5487 108.904 27.7978Z" fill="#693A23"/>
<path fill-rule="evenodd" clip-rule="evenodd" d="M120.547 78.173C120.547 83.6337 130.479 85.4767 130.479 85.4767C130.479 85.4767 140.41 78.5143 140.41 73.0535C140.41 67.5928 135.958 64.3163 130.479 65.7498C124.999 67.1832 120.547 72.7122 120.547 78.173Z" fill="#F9C0A5"/>
<path fill-rule="evenodd" clip-rule="evenodd" d="M104.521 54.555C115.479 51.8928 126.37 41.9952 128.699 35.5106C128.699 35.5106 124.041 34.7597 115.753 41.4492C107.466 48.2068 104.521 54.555 104.521 54.555Z" fill="#693A23"/>
<path fill-rule="evenodd" clip-rule="evenodd" d="M135.89 45.6816C135.342 62.7465 135.342 65.6816 135.342 65.6816L129.315 73.8045C129.315 73.8045 131.644 63.5656 128.767 52.3711L135.89 45.6816Z" fill="#372719"/>
<path fill-rule="evenodd" clip-rule="evenodd" d="M65.8217 45.6816L72.534 52.3028C71.0272 63.4973 71.9176 71.7567 71.9176 71.7567C71.9176 71.7567 69.9313 65.3403 66.2326 65.7499C66.2326 65.7499 63.0134 48.7533 65.8217 45.6816Z" fill="#372719"/>
<path d="M100.685 122.132C95.548 122.132 90.4795 120.562 86.0274 117.49C85.548 117.149 85.4795 116.535 85.822 116.125C86.1644 115.647 86.7809 115.579 87.1918 115.92C95.4795 121.791 106.438 121.654 115.137 115.511C115.616 115.17 116.233 115.306 116.507 115.716C116.849 116.193 116.712 116.808 116.301 117.081C111.507 120.425 106.096 122.132 100.685 122.132Z" fill="#D89E80"/>
<path d="M106.849 66.2953C106.164 66.2953 105.548 65.8175 105.411 65.1349C105.274 64.3841 105.753 63.6332 106.507 63.4284C120.89 60.5615 123.973 63.1554 124.589 64.0428C125.069 64.7254 124.863 65.6127 124.247 66.0223C123.63 66.4318 122.808 66.3636 122.329 65.8175C122.123 65.681 119.247 63.838 107.055 66.2953C106.986 66.2953 106.918 66.2953 106.849 66.2953Z" fill="#805E45"/>
<path d="M93.4247 60.8344C93.3562 60.8344 93.2192 60.8344 93.1507 60.8344C80.9589 58.377 78.0137 60.22 78.0137 60.22C77.5343 60.9026 76.6439 61.0392 76.0274 60.5613C75.3425 60.0835 75.2055 59.1962 75.685 58.5818C76.3014 57.6945 79.3836 55.1006 93.7672 57.9675C94.5206 58.104 95.0685 58.8549 94.8631 59.674C94.7261 60.3566 94.1096 60.8344 93.4247 60.8344Z" fill="#805E45"/>
<path d="M116.438 75.9876L110.685 75.9193C109.657 75.9193 108.835 75.0319 108.835 74.008C108.835 72.9842 109.657 72.165 110.685 72.165L116.438 72.2333C117.466 72.2333 118.288 73.1207 118.288 74.1446C118.288 75.1685 117.466 75.9876 116.438 75.9876Z" fill="#1B1F2F"/>
<path fill-rule="evenodd" clip-rule="evenodd" d="M59.0408 19.4004C61.0956 38.3765 59.0408 53.6666 82.3284 53.4618C105.548 53.3253 138.63 36.67 108.835 27.7963C73.2873 45.339 59.0408 19.4004 59.0408 19.4004Z" fill="#372719"/>
<path d="M86.6437 77.2859C85.6163 77.2859 84.7944 76.4667 84.7944 75.4429V70.9377C84.7944 69.9138 85.6163 69.0947 86.6437 69.0947C87.6711 69.0947 88.4931 69.9138 88.4931 70.9377V75.4429C88.5616 76.3985 87.6711 77.2859 86.6437 77.2859Z" fill="#1B1F2F"/>
<path d="M103.63 93.1894H99.1094C96.9176 93.1894 94.5889 91.4147 94.5889 88.6843V78.1723C94.5889 77.6263 95.0683 77.1484 95.6163 77.1484C96.1642 77.1484 96.6437 77.6263 96.6437 78.1723V88.6843C96.6437 90.2543 98.082 91.1416 99.1094 91.1416H103.63C104.178 91.1416 104.657 91.6194 104.657 92.1655C104.657 92.7116 104.178 93.1894 103.63 93.1894Z" fill="#D89E80"/>
<path fill-rule="evenodd" clip-rule="evenodd" d="M106.918 97.6955L96.8491 99.402C96.8491 99.402 98.493 105.136 107.945 103.429C117.397 101.791 117.123 95.8525 117.123 95.8525L106.918 97.6955Z" fill="#372719"/>
<path d="M114.794 84.2469C108.493 84.2469 103.356 79.1274 103.356 72.8476C103.356 66.5677 108.493 61.4482 114.794 61.4482C121.096 61.4482 126.233 66.5677 126.233 72.8476C126.233 79.1274 121.096 84.2469 114.794 84.2469ZM114.794 64.3151C110.068 64.3151 106.233 68.1377 106.233 72.8476C106.233 77.5575 110.068 81.38 114.794 81.38C119.52 81.38 123.356 77.5575 123.356 72.8476C123.356 68.1377 119.52 64.3151 114.794 64.3151Z" fill="#727093"/>
<path d="M86.6437 84.2469C80.3423 84.2469 75.2053 79.1274 75.2053 72.8476C75.2053 66.5677 80.3423 61.4482 86.6437 61.4482C92.9451 61.4482 98.082 66.5677 98.082 72.8476C98.082 79.1274 92.9451 84.2469 86.6437 84.2469ZM86.6437 64.3151C81.9177 64.3151 78.082 68.1377 78.082 72.8476C78.082 77.5575 81.9177 81.38 86.6437 81.38C91.3697 81.38 95.2053 77.5575 95.2053 72.8476C95.2053 68.1377 91.3697 64.3151 86.6437 64.3151Z" fill="#727093"/>
<path fill-rule="evenodd" clip-rule="evenodd" d="M63.0137 32.917C65.8219 45.6815 71.8493 53.19 98.6301 42.6098C98.6301 42.6098 86.0274 44.3846 76.5068 41.5859C66.9863 38.7873 63.0137 32.917 63.0137 32.917Z" fill="#693A23"/>
<path fill-rule="evenodd" clip-rule="evenodd" d="M81.7122 37.5583C81.7122 37.5583 114.931 49.5037 122.671 25.3398C116.507 29.6402 116.918 29.9132 104.041 33.804C96.3012 36.1248 83.0135 37.5583 81.7122 37.5583Z" fill="#693A23"/>
<path d="M104.794 74.2824C103.972 74.2824 103.356 73.6681 103.356 72.849C103.356 72.3712 103.15 72.0299 102.808 71.7568C102.397 71.4838 101.712 71.279 100.959 71.279C99.5888 71.279 98.0134 71.8933 98.0134 72.849C98.0134 73.6681 97.397 74.2824 96.5751 74.2824C95.7532 74.2824 95.1367 73.6681 95.1367 72.849C95.1367 69.9821 98.1504 68.4121 100.959 68.4121C102.26 68.4121 103.493 68.7534 104.452 69.3677C105.616 70.1869 106.233 71.4155 106.233 72.849C106.233 73.6681 105.616 74.2824 104.794 74.2824Z" fill="#727093"/>
<path fill-rule="evenodd" clip-rule="evenodd" d="M23.2189 177.422C26.2326 169.641 28.9038 161.654 31.3011 153.6L73.7668 162.542C73.7668 162.542 70.9586 177.286 60.2737 198.105L23.2189 177.422Z" fill="#001A73"/>
<path fill-rule="evenodd" clip-rule="evenodd" d="M31.3013 153.599C28.8356 165.271 36.3013 176.807 48.0821 179.264C59.7945 181.722 71.3698 174.281 73.8356 162.541C76.3013 150.868 68.8356 139.332 57.0547 136.875C45.3424 134.418 33.7671 141.926 31.3013 153.599Z" fill="#001A73"/>
<path fill-rule="evenodd" clip-rule="evenodd" d="M23.219 177.422C23.219 177.422 14.5204 199.06 8.28748 209.64C8.28748 209.64 16.8491 209.162 27.3286 215.988C37.808 222.814 39.9998 230.186 39.9998 230.186C39.9998 230.186 50.6162 219.128 60.3423 198.104L23.219 177.422Z" fill="#001A73"/>
<path fill-rule="evenodd" clip-rule="evenodd" d="M41.3009 219.196C41.6434 220.561 41.9859 221.858 42.2598 223.155C42.3283 223.565 42.4653 223.974 42.5338 224.384C45.1366 235.715 45.479 241.039 45.479 241.039L68.9037 243.019L104.178 246.022L112.671 246.773L151.643 250.118C151.643 249.981 151.712 249.299 151.986 247.729C152.602 243.906 154.246 235.032 158.287 217.148V217.08C158.767 214.964 159.246 212.848 159.726 210.732C166.575 180.084 173.219 146.568 173.424 145.544C166.643 133.053 142.397 127.592 126.027 123.838L110.205 130.459C106.301 133.872 95.9585 139.128 95.9585 139.128L79.8626 123.77C79.8626 123.77 79.7256 123.77 79.3831 123.838C79.0407 123.906 78.4927 123.974 77.8078 124.111C76.8489 124.316 75.616 124.657 74.1777 125.135C61.3694 128.616 31.1639 138.923 30.9585 158.923C30.6845 180.22 36.9859 201.858 41.3009 219.196Z" fill="#001A73"/>
<path fill-rule="evenodd" clip-rule="evenodd" d="M158.287 217.148V217.08C158.767 214.964 159.246 212.848 159.726 210.732C166.575 180.084 173.219 146.568 173.424 145.544C166.644 133.053 142.397 127.592 126.027 123.838L110.205 130.459C106.301 133.872 95.9587 139.128 95.9587 139.128L79.8628 123.77C79.8628 123.77 79.7258 123.77 79.3833 123.838C79.0409 123.906 78.4929 123.974 77.808 124.111C76.8491 124.316 75.6162 124.657 74.1778 125.135C68.7669 126.636 60.2052 129.299 52.123 133.462C56.9861 156.329 64.8628 192.78 84.0409 215.851C101.164 236.466 141.986 240.357 153.082 241.039C154.178 235.988 155.753 228.275 158.287 217.148Z" fill="#ED8C00"/>
<path fill-rule="evenodd" clip-rule="evenodd" d="M85.7534 116.972C85.8219 124.753 90.5479 129.873 95.9589 138.473L84.452 148.985C79.589 142.091 79.2465 133.422 78.9041 124.344L85.7534 116.972Z" fill="#383E8A"/>
<path fill-rule="evenodd" clip-rule="evenodd" d="M117.466 116.972C114.863 123.593 108.767 128.508 95.959 138.473L105.48 149.941C116.438 143.252 123.63 133.354 126.096 123.183L117.466 116.972Z" fill="#383E8A"/>
<path fill-rule="evenodd" clip-rule="evenodd" d="M148.698 192.125C145.342 184.48 141.644 176.903 137.671 169.463L174.246 146.118C174.246 146.118 182.602 158.541 189.726 180.93L148.698 192.125Z" fill="#ED8C00"/>
<path fill-rule="evenodd" clip-rule="evenodd" d="M137.74 169.531C144.178 179.565 157.671 182.5 167.74 176.084C177.808 169.667 180.753 156.22 174.315 146.186C167.877 136.152 154.384 133.217 144.315 139.633C134.247 146.05 131.233 159.429 137.74 169.531Z" fill="#ED8C00"/>
<path fill-rule="evenodd" clip-rule="evenodd" d="M148.698 192.125C148.698 192.125 157.739 213.627 160.753 225.573C160.753 225.573 164.931 221.75 179.109 218.883C193.219 216.016 197.808 218.064 197.808 218.064C197.808 218.064 197.602 202.774 189.726 180.999C189.726 180.999 181.712 179.02 166.849 183.388C152.054 187.62 148.698 192.125 148.698 192.125Z" fill="#383E8A"/>
</g>
<mask id="mask1" mask-type="alpha" maskUnits="userSpaceOnUse" x="0" y="0" width="200" height="200">
<path d="M200 0H0V199.317H200V0Z" fill="white"/>
</mask>
<g mask="url(#mask1)">
<path fill-rule="evenodd" clip-rule="evenodd" d="M52.74 202.662C78.4249 182.935 92.5345 172.355 95.0688 170.989C98.8359 168.873 113.425 166.553 115.206 167.781C117.055 169.01 108.973 187.303 108.562 192.218C107.055 192.286 105.685 192.628 104.589 193.105L90.2057 202.73H52.74V202.662Z" fill="#F9C0A5"/>
</g>
<mask id="mask2" mask-type="alpha" maskUnits="userSpaceOnUse" x="0" y="0" width="200" height="200">
<path d="M200 0H0V199.317H200V0Z" fill="white"/>
</mask>
<g mask="url(#mask2)">
<path fill-rule="evenodd" clip-rule="evenodd" d="M92.0547 189.83C94.3835 192.56 98.4246 193.857 104.247 193.652C109.041 191.946 115.205 193.926 120 192.151L137.603 186.076C143.562 183.891 142.877 176.997 140.137 175.837C142.671 173.516 142.055 168.874 139.657 167.441C142.26 164.779 140.822 159.796 138.288 159.386C140.548 158.499 141.781 156.042 140.959 153.857C140.068 151.468 137.534 150.444 135.205 151.263L117.877 157.543C114.863 156.246 111.986 150.649 112.123 147.577C112.26 144.233 111.37 141.912 109.041 139.796C106.644 137.68 101.096 137.202 101.644 140.683C101.849 142.253 103.493 145.188 102.877 149.966C102.123 155.427 104.931 166.212 97.9452 168.738C93.4246 170.581 90.6164 173.516 89.452 177.543C87.8767 183.618 88.6301 185.734 92.0547 189.83Z" fill="#F9C0A5"/>
</g>
</svg>
